<svg xmlns="http://www.w3.org/2000/svg" version="1.1" width="192px" height="192px" style="shape-rendering:geometricPrecision; text-rendering:geometricPrecision; image-rendering:optimizeQuality; fill-rule:evenodd; clip-rule:evenodd"
    xmlns:xlink="http://www.w3.org/1999/xlink">
    <g>
        <path style="opacity:0.999" fill="#141416" d="M 10.5,-0.5 C 67.1667,-0.5 123.833,-0.5 180.5,-0.5C 184.5,2.83333 188.167,6.5 191.5,10.5C 191.5,67.1667 191.5,123.833 191.5,180.5C 188.167,184.5 184.5,188.167 180.5,191.5C 123.833,191.5 67.1667,191.5 10.5,191.5C 6.5,188.167 2.83333,184.5 -0.5,180.5C -0.5,123.833 -0.5,67.1667 -0.5,10.5C 2.83333,6.5 6.5,2.83333 10.5,-0.5 Z"/>
    </g>
    <g>
        <path style="opacity:1" fill="#f8f8f9" d="M 16.5,119.5 C 17.209,120.404 18.209,120.737 19.5,120.5C 19.5,118.167 19.5,115.833 19.5,113.5C 22.0953,101.124 25.9286,89.1237 31,77.5C 32.4669,74.7336 34.3002,72.2336 36.5,70C 39.5282,68.8603 41.6949,69.6936 43,72.5C 42.3103,81.9434 40.6436,91.2767 38,100.5C 36.7614,108.519 35.5948,116.519 34.5,124.5C 56.8817,128.967 70.3817,119.967 75,97.5C 76.0657,89.0057 75.399,80.6723 73,72.5C 68.6463,65.0721 62.1463,61.4055 53.5,61.5C 41.0559,63.7618 28.7225,66.4284 16.5,69.5C 16.253,66.495 17.253,63.995 19.5,62C 36.2492,48.5681 54.5825,45.9014 74.5,54C 87.9202,62.1704 94.2536,74.1704 93.5,90C 93.1379,121.021 77.6379,137.855 47,140.5C 38.837,139.502 30.6703,139.335 22.5,140C 19.4567,138.066 17.79,135.233 17.5,131.5C 11.887,128.887 7.55371,124.887 4.5,119.5C 5.17094,118.054 6.3376,117.388 8,117.5C 10.8224,118.275 13.6557,118.942 16.5,119.5 Z"/>
    </g>
    <g>
        <path style="opacity:1" fill="#f8f9f9" d="M 170.5,49.5 C 173.518,49.3354 176.518,49.502 179.5,50C 180.333,50.8333 181.167,51.6667 182,52.5C 182.547,65.4129 178.547,76.7463 170,86.5C 165.425,91.7462 160.258,96.2462 154.5,100C 157.385,107.32 159.885,114.82 162,122.5C 163.471,126.546 165.971,127.379 169.5,125C 174.675,120.657 179.675,116.157 184.5,111.5C 185.086,111.709 185.586,112.043 186,112.5C 187.315,118.204 185.982,123.204 182,127.5C 174.382,137.405 164.549,141.238 152.5,139C 151.333,137.833 150.167,136.667 149,135.5C 146.093,125.153 143.927,114.653 142.5,104C 140.625,102.14 138.458,100.64 136,99.5C 133.722,96.1213 134.222,93.288 137.5,91C 140.713,90.2974 143.879,90.4641 147,91.5C 149.967,88.8604 152.634,85.8604 155,82.5C 160.279,71.4668 165.446,60.4668 170.5,49.5 Z"/>
    </g>
    <g>
        <path style="opacity:1" fill="#f8f8f8" d="M 127.5,53.5 C 131.846,53.3343 136.179,53.501 140.5,54C 143.205,58.2243 143.038,62.391 140,66.5C 136.199,81.5674 132.199,96.5674 128,111.5C 126.289,119.741 125.289,128.074 125,136.5C 123.661,139.094 121.494,140.594 118.5,141C 108.916,143.416 105.249,139.749 107.5,130C 109.159,108.362 114.492,87.6951 123.5,68C 117.97,67.0863 112.637,67.753 107.5,70C 104.946,72.0634 102.28,73.8967 99.5,75.5C 98.5581,75.3918 97.7247,75.0585 97,74.5C 95.6306,69.5626 96.7973,65.396 100.5,62C 108.997,57.2214 117.997,54.388 127.5,53.5 Z"/>
    </g>
    <g>
        <path style="opacity:1" fill="#838384" d="M 19.5,113.5 C 19.5,115.833 19.5,118.167 19.5,120.5C 18.209,120.737 17.209,120.404 16.5,119.5C 18.0603,117.844 19.0603,115.844 19.5,113.5 Z"/>
    </g>
</svg>
